<?xml version="1.0" encoding="UTF-8"?>
<svg width="258px" height="258px" viewBox="0 0 258 258" version="1.1" xmlns="http://www.w3.org/2000/svg" xmlns:xlink="http://www.w3.org/1999/xlink">
    <!-- Generator: Sketch 47.1 (45422) - http://www.bohemiancoding.com/sketch -->
    <title>Bitcoin Cash</title>
    <desc>Created with Sketch.</desc>
    <defs></defs>
    <g id="Classic" stroke="none" stroke-width="1" fill="none" fill-rule="evenodd">
        <g transform="translate(-934.000000, -409.000000)" id="Bitcoin-Cash" fill="#F28931">
            <g transform="translate(906.000000, 381.000000)">
                <path d="M148.107237,163.737039 L172.359868,163.737039 C183.678289,163.737039 190.414474,171.282434 190.145395,182.061382 C190.145395,189.875855 186.641447,196.882434 180.174342,199.577171 C177.749342,200.654803 174.246053,200.923882 171.282237,200.923882 L148.107237,200.923882 L148.107237,163.737039 Z M178.288355,114.693026 C183.138355,117.387763 185.564013,122.777237 185.564013,128.974605 C185.564013,138.675921 179.904803,145.412763 170.204145,145.412763 L148.106776,145.412763 L148.106776,112.806184 L167.509408,112.806184 C171.820592,112.806184 175.593618,113.345658 178.288355,114.693026 Z M173.438158,219.517763 C173.438158,232.09364 173.438158,238.381579 173.438158,238.381579 C173.438158,238.381579 169.216228,238.381579 160.772368,238.381579 L160.772368,219.517763 L147.568421,219.517763 C147.568421,232.09364 147.568421,238.381579 147.568421,238.381579 C147.568421,238.381579 143.346711,238.381579 134.903289,238.381579 L134.903289,219.517763 C118.016009,219.517763 109.572368,219.517763 109.572368,219.517763 C109.572368,219.517763 109.572368,213.769298 109.572368,202.272368 L117.3875,202.272368 C121.428947,202.272368 124.393421,199.038158 124.393421,195.265789 L124.393421,119.004605 C124.393421,114.9625 121.159868,111.998684 117.3875,111.998684 C112.177412,111.998684 109.572368,111.998684 109.572368,111.998684 C109.572368,111.998684 109.572368,106.249781 109.572368,94.7519737 L134.903289,94.7519737 C134.903289,82.1765351 134.903289,75.8888158 134.903289,75.8888158 C134.903289,75.8888158 139.125,75.8888158 147.568421,75.8888158 L147.568421,94.7519737 L160.772368,94.7519737 C160.772368,82.1765351 160.772368,75.8888158 160.772368,75.8888158 C160.772368,75.8888158 164.994298,75.8888158 173.438158,75.8888158 L173.438158,95.0210526 C179.905263,95.2907895 185.025,96.0993421 190.145395,98.2552632 C201.463158,102.566447 209.278289,113.075658 209.278289,127.088816 C209.278289,138.946053 203.888158,148.646711 193.917763,153.766447 C207.930263,158.348026 214.128289,170.473684 214.128289,183.678289 C213.859211,200.654605 202.540789,213.050658 189.067105,217.3625 C183.678289,218.978947 178.827632,219.517763 173.438158,219.517763 Z M29,157 C29,227.601974 86.3973684,285.000658 157,285.000658 C227.601974,285.000658 285,227.601974 285,157 C285,86.3980263 227.601974,29 157,29 C86.3973684,29 29,86.3980263 29,157 Z" transform="translate(157.000000, 157.000329) rotate(-15.000000) translate(-157.000000, -157.000329) "></path>
            </g>
        </g>
    </g>
</svg>