<?xml version="1.0" encoding="UTF-8"?>
<svg width="156px" height="256px" viewBox="0 0 156 256" version="1.1" xmlns="http://www.w3.org/2000/svg" xmlns:xlink="http://www.w3.org/1999/xlink">
    <!-- Generator: Sketch 47.1 (45422) - http://www.bohemiancoding.com/sketch -->
    <title>Ethereum</title>
    <desc>Created with Sketch.</desc>
    <defs></defs>
    <g id="Classic" stroke="none" stroke-width="1" fill="none" fill-rule="evenodd">
        <g transform="translate(-1570.000000, -410.000000)" id="Ethereum">
            <g transform="translate(1570.000000, 410.000000)">
                <path d="M0,128 L80,0 L80,93.5358372 L0,128 Z M156,128 L80,93.5809573 L80,0 L156,128 Z" id="Combined-Shape" fill="#828384"></path>
                <path d="M80,176 L0,131.00396 L80,96 L80,176 Z M156,131.011473 L80,176 L80,96 L156,131.011473 Z" id="Combined-Shape" fill="#343535"></path>
                <path d="M0,148 L80,194.180711 L80,256 L0,148 Z M156,148 L80,256 L80,194.175361 L156,148 Z" id="Combined-Shape" fill="#828384"></path>
                <polygon id="Path-3" fill="#2F3030" points="156 128 80 93.5809573 80 0"></polygon>
                <polygon id="Path-5" fill="#131313" points="156 131.011473 80 96 80 176"></polygon>
                <polygon id="Path-7" fill="#2F3030" points="156 148 80 194.175361 80 256"></polygon>
            </g>
        </g>
    </g>
</svg>