<?xml version="1.0" encoding="UTF-8"?>
<svg width="256px" height="245px" viewBox="0 0 256 245" version="1.1" xmlns="http://www.w3.org/2000/svg" xmlns:xlink="http://www.w3.org/1999/xlink">
    <!-- Generator: Sketch 47.1 (45422) - http://www.bohemiancoding.com/sketch -->
    <title>IOTA</title>
    <desc>Created with Sketch.</desc>
    <defs></defs>
    <g id="Classic" stroke="none" stroke-width="1" fill="none" fill-rule="evenodd">
        <g transform="translate(-906.000000, -1128.000000)" id="IOTA" fill="#000000">
            <g transform="translate(906.000000, 1128.000000)">
                <path d="M186.055351,0.912475248 C194.175716,0.912475248 200.758774,7.49540423 200.758774,15.6158986 C200.758774,23.736393 194.175716,30.319322 186.055351,30.319322 C177.934857,30.319322 171.351928,23.736393 171.351928,15.6158986 C171.351928,7.49540423 177.934857,0.912475248 186.055351,0.912475248" id="Fill-3"></path>
                <path d="M190.07189,41.7394047 C196.947071,41.7394047 202.520486,47.3128198 202.520486,54.1881301 C202.520486,61.063181 196.947071,66.6367258 190.07189,66.6367258 C183.19658,66.6367258 177.623165,61.063181 177.623165,54.1881301 C177.623165,47.3128198 183.19658,41.7394047 190.07189,41.7394047" id="Fill-5"></path>
                <path d="M222.713283,46.430796 C229.572371,46.430796 235.132679,51.9912336 235.132679,58.8501925 C235.132679,65.7092811 229.572371,71.2695889 222.713283,71.2695889 C215.854194,71.2695889 210.293886,65.7092811 210.293886,58.8501925 C210.293886,51.9912336 215.854194,46.430796 222.713283,46.430796" id="Fill-7"></path>
                <path d="M218.706502,81.1227254 C224.572948,81.1227254 229.328655,85.8784328 229.328655,91.7447483 C229.328655,97.6111936 224.572948,102.366771 218.706502,102.366771 C212.840187,102.366771 208.084479,97.6111936 208.084479,91.7447483 C208.084479,85.8784328 212.840187,81.1227254 218.706502,81.1227254" id="Fill-9"></path>
                <path d="M244.826868,91.1088804 C250.730818,91.1088804 255.517022,95.894955 255.517022,101.799035 C255.517022,107.702985 250.730818,112.489189 244.826868,112.489189 C238.922788,112.489189 234.136713,107.702985 234.136713,101.799035 C234.136713,95.894955 238.922788,91.1088804 244.826868,91.1088804" id="Fill-11"></path>
                <path d="M185.873615,76.3729097 C191.883461,76.3729097 196.755316,81.2447651 196.755316,87.2546109 C196.755316,93.2641972 191.883461,98.1360526 185.873615,98.1360526 C179.863899,98.1360526 174.992044,93.2641972 174.992044,87.2546109 C174.992044,81.2447651 179.863899,76.3729097 185.873615,76.3729097" id="Fill-13"></path>
                <path d="M176.383873,104.60857 C181.424305,104.60857 185.510247,108.694512 185.510247,113.734944 C185.510247,118.775377 181.424305,122.861319 176.383873,122.861319 C171.34357,122.861319 167.257498,118.775377 167.257498,113.734944 C167.257498,108.694512 171.34357,104.60857 176.383873,104.60857" id="Fill-15"></path>
                <path d="M209.054542,109.144206 C214.05734,109.144206 218.112785,113.199651 218.112785,118.202449 C218.112785,123.205247 214.05734,127.260692 209.054542,127.260692 C204.051744,127.260692 199.996299,123.205247 199.996299,118.202449 C199.996299,113.199651 204.051744,109.144206 209.054542,109.144206" id="Fill-17"></path>
                <path d="M235.132705,119.062178 C240.180275,119.062178 244.272057,123.15396 244.272057,128.20153 C244.272057,133.249099 240.180275,137.341012 235.132705,137.341012 C230.085135,137.341012 225.993353,133.249099 225.993353,128.20153 C225.993353,123.15396 230.085135,119.062178 235.132705,119.062178" id="Fill-19"></path>
                <path d="M222.197482,140.65337 C226.454856,140.65337 229.905943,144.104716 229.905943,148.361961 C229.905943,152.619335 226.454856,156.070551 222.197482,156.070551 C217.940108,156.070551 214.488891,152.619335 214.488891,148.361961 C214.488891,144.104716 217.940108,140.65337 222.197482,140.65337" id="Fill-21"></path>
                <path d="M196.018692,130.398037 C200.369244,130.398037 203.895989,133.924782 203.895989,138.275205 C203.895989,142.625886 200.369244,146.152502 196.018692,146.152502 C191.668269,146.152502 188.141524,142.625886 188.141524,138.275205 C188.141524,133.924782 191.668269,130.398037 196.018692,130.398037" id="Fill-23"></path>
                <path d="M163.367541,125.94351 C167.678641,125.94351 171.173462,129.43833 171.173462,133.749301 C171.173462,138.060532 167.678641,141.555353 163.367541,141.555353 C159.05644,141.555353 155.561619,138.060532 155.561619,133.749301 C155.561619,129.43833 159.05644,125.94351 163.367541,125.94351" id="Fill-25"></path>
                <path d="M181.47105,145.578329 C185.228404,145.578329 188.274465,148.62439 188.274465,152.381744 C188.274465,156.139228 185.228404,159.18516 181.47105,159.18516 C177.713695,159.18516 174.667634,156.139228 174.667634,152.381744 C174.667634,148.62439 177.713695,145.578329 181.47105,145.578329" id="Fill-27"></path>
                <path d="M207.64971,155.570947 C211.439378,155.570947 214.511524,158.643093 214.511524,162.43276 C214.511524,166.222428 211.439378,169.294574 207.64971,169.294574 C203.860172,169.294574 200.787896,166.222428 200.787896,162.43276 C200.787896,158.643093 203.860172,155.570947 207.64971,155.570947" id="Fill-29"></path>
                <path d="M192.852278,165.910685 C195.839292,165.910685 198.26062,168.332142 198.26062,171.319027 C198.26062,174.305911 195.839292,176.727499 192.852278,176.727499 C189.865264,176.727499 187.443936,174.305911 187.443936,171.319027 C187.443936,168.332142 189.865264,165.910685 192.852278,165.910685" id="Fill-31"></path>
                <path d="M178.85288,170.936271 C181.567498,170.936271 183.76808,173.136853 183.76808,175.851471 C183.76808,178.566088 181.567498,180.766671 178.85288,180.766671 C176.138262,180.766671 173.93768,178.566088 173.93768,175.851471 C173.93768,173.136853 176.138262,170.936271 178.85288,170.936271" id="Fill-33"></path>
                <path d="M166.670321,155.694258 C169.893784,155.694258 172.506919,158.307392 172.506919,161.530855 C172.506919,164.754188 169.893784,167.367452 166.670321,167.367452 C163.446859,167.367452 160.833594,164.754188 160.833594,161.530855 C160.833594,158.307392 163.446859,155.694258 166.670321,155.694258" id="Fill-35"></path>
                <path d="M148.774399,141.127098 C152.522929,141.127098 155.561593,144.165762 155.561593,147.914291 C155.561593,151.662821 152.522929,154.701485 148.774399,154.701485 C145.026,154.701485 141.987206,151.662821 141.987206,147.914291 C141.987206,144.165762 145.026,141.127098 148.774399,141.127098" id="Fill-37"></path>
                <path d="M202.351779,207.295747 C210.431006,207.295747 216.980583,213.845324 216.980583,221.92455 C216.980583,230.003776 210.431006,236.553353 202.351779,236.553353 C194.272423,236.553353 187.722846,230.003776 187.722846,221.92455 C187.722846,213.845324 194.272423,207.295747 202.351779,207.295747" id="Fill-39"></path>
                <path d="M166.754597,194.227453 C173.493644,194.227453 178.956621,199.69056 178.956621,206.429478 C178.956621,213.168396 173.493644,218.631503 166.754597,218.631503 C160.015679,218.631503 154.552702,213.168396 154.552702,206.429478 C154.552702,199.69056 160.015679,194.227453 166.754597,194.227453" id="Fill-41"></path>
                <path d="M146.493591,219.627468 C153.289998,219.627468 158.799435,225.137034 158.799435,231.933312 C158.799435,238.72959 153.289998,244.239156 146.493591,244.239156 C139.697313,244.239156 134.187877,238.72959 134.187877,231.933312 C134.187877,225.137034 139.697313,219.627468 146.493591,219.627468" id="Fill-43"></path>
                <path d="M140.329314,175.578867 C146.215355,175.578867 150.987025,180.350536 150.987025,186.236578 C150.987025,192.122619 146.215355,196.894289 140.329314,196.894289 C134.443272,196.894289 129.671603,192.122619 129.671603,186.236578 C129.671603,180.350536 134.443272,175.578867 140.329314,175.578867" id="Fill-45"></path>
                <path d="M120.078067,201.592143 C125.949833,201.592143 130.709823,206.352133 130.709823,212.223899 C130.709823,218.095665 125.949833,222.855655 120.078067,222.855655 C114.206301,222.855655 109.446311,218.095665 109.446311,212.223899 C109.446311,206.352133 114.206301,201.592143 120.078067,201.592143" id="Fill-47"></path>
                <path d="M98.3148978,219.299866 C104.167068,219.299866 108.910966,224.043894 108.910966,229.895804 C108.910966,235.747845 104.167068,240.492002 98.3148978,240.492002 C92.4628574,240.492002 87.7189594,235.747845 87.7189594,229.895804 C87.7189594,224.043894 92.4628574,219.299866 98.3148978,219.299866" id="Fill-49"></path>
                <path d="M80.0946699,199.337315 C85.0829328,199.337315 89.1269582,203.38121 89.1269582,208.369603 C89.1269582,213.357996 85.0829328,217.401891 80.0946699,217.401891 C75.1062772,217.401891 71.0622518,213.357996 71.0622518,208.369603 C71.0622518,203.38121 75.1062772,199.337315 80.0946699,199.337315" id="Fill-51"></path>
                <path d="M101.925892,181.606907 C106.923369,181.606907 110.974532,185.65807 110.974532,190.655417 C110.974532,195.652764 106.923369,199.703927 101.925892,199.703927 C96.9285454,199.703927 92.8773824,195.652764 92.8773824,190.655417 C92.8773824,185.65807 96.9285454,181.606907 101.925892,181.606907" id="Fill-53"></path>
                <path d="M122.290692,155.626075 C127.293489,155.626075 131.349065,159.68165 131.349065,164.684318 C131.349065,169.687115 127.293489,173.742691 122.290692,173.742691 C117.288024,173.742691 113.232449,169.687115 113.232449,164.684318 C113.232449,159.68165 117.288024,155.626075 122.290692,155.626075" id="Fill-55"></path>
                <path d="M91.0832792,161.530803 C95.4122889,161.530803 98.9216444,165.040159 98.9216444,169.369169 C98.9216444,173.698178 95.4122889,177.207534 91.0832792,177.207534 C86.7542695,177.207534 83.2449141,173.698178 83.2449141,169.369169 C83.2449141,165.040159 86.7542695,161.530803 91.0832792,161.530803" id="Fill-57"></path>
                <path d="M69.3590166,179.287192 C73.6522086,179.287192 77.1324946,182.767478 77.1324946,187.06067 C77.1324946,191.353732 73.6522086,194.834148 69.3590166,194.834148 C65.0659544,194.834148 61.5856684,191.353732 61.5856684,187.06067 C61.5856684,182.767478 65.0659544,179.287192 69.3590166,179.287192" id="Fill-59"></path>
                <path d="M64.3302641,160.638605 C68.0466095,160.638605 71.0591892,163.651185 71.0591892,167.36753 C71.0591892,171.083616 68.0466095,174.096196 64.3302641,174.096196 C60.6140485,174.096196 57.6014689,171.083616 57.6014689,167.36753 C57.6014689,163.651185 60.6140485,160.638605 64.3302641,160.638605" id="Fill-61"></path>
                <path d="M64.0869374,144.325955 C67.2745825,144.325955 69.8587773,146.91002 69.8587773,150.097795 C69.8587773,153.28531 67.2745825,155.869375 64.0869374,155.869375 C60.8994221,155.869375 58.3152273,153.28531 58.3152273,150.097795 C58.3152273,146.91002 60.8994221,144.325955 64.0869374,144.325955" id="Fill-63"></path>
                <path d="M67.0652826,130.881394 C69.7780836,130.881394 71.977368,133.080549 71.977368,135.79335 C71.977368,138.506151 69.7780836,140.705305 67.0652826,140.705305 C64.3526113,140.705305 62.1533269,138.506151 62.1533269,135.79335 C62.1533269,133.080549 64.3526113,130.881394 67.0652826,130.881394" id="Fill-65"></path>
                <path d="M85.8598653,126.60214 C89.0833281,126.60214 91.6964626,129.215274 91.6964626,132.438737 C91.6964626,135.66207 89.0833281,138.275205 85.8598653,138.275205 C82.6364026,138.275205 80.0232681,135.66207 80.0232681,132.438737 C80.0232681,129.215274 82.6364026,126.60214 85.8598653,126.60214" id="Fill-67"></path>
                <path d="M106.429085,116.869071 C110.184622,116.869071 113.229256,119.913575 113.229256,123.669112 C113.229256,127.424909 110.184622,130.469413 106.429085,130.469413 C102.673548,130.469413 99.6289141,127.424909 99.6289141,123.669112 C99.6289141,119.913575 102.673548,116.869071 106.429085,116.869071" id="Fill-69"></path>
                <path d="M111.363803,135.611692 C115.637269,135.611692 119.101593,139.075886 119.101593,143.349482 C119.101593,147.622948 115.637269,151.087272 111.363803,151.087272 C107.090207,151.087272 103.626013,147.622948 103.626013,143.349482 C103.626013,139.075886 107.090207,135.611692 111.363803,135.611692" id="Fill-71"></path>
                <path d="M86.1323394,142.999065 C89.8556926,142.999065 92.8741121,146.017485 92.8741121,149.740838 C92.8741121,153.464321 89.8556926,156.482611 86.1323394,156.482611 C82.4091159,156.482611 79.3906965,153.464321 79.3906965,149.740838 C79.3906965,146.017485 82.4091159,142.999065 86.1323394,142.999065" id="Fill-73"></path>
                <path d="M15.4540344,118.475027 C23.5082142,118.475027 30.0374166,125.004229 30.0374166,133.058409 C30.0374166,141.112459 23.5082142,147.641791 15.4540344,147.641791 C7.39985469,147.641791 0.870652249,141.112459 0.870652249,133.058409 C0.870652249,125.004229 7.39985469,118.475027 15.4540344,118.475027" id="Fill-75"></path>
                <path d="M46.9795497,97.6332034 C53.8779599,97.6332034 59.470322,103.225565 59.470322,110.123976 C59.470322,117.022386 53.8779599,122.614748 46.9795497,122.614748 C40.0810098,122.614748 34.4887775,117.022386 34.4887775,110.123976 C34.4887775,103.225565 40.0810098,97.6332034 46.9795497,97.6332034" id="Fill-77"></path>
                <path d="M34.6185517,67.1071056 C41.4811442,67.1071056 47.0444369,72.6702684 47.0444369,79.5329907 C47.0444369,86.3955832 41.4811442,91.9588759 34.6185517,91.9588759 C27.7558294,91.9588759 22.1926666,86.3955832 22.1926666,79.5329907 C22.1926666,72.6702684 27.7558294,67.1071056 34.6185517,67.1071056" id="Fill-79"></path>
                <path d="M65.0181715,55.9854257 C70.9005791,55.9854257 75.6692639,60.7541106 75.6692639,66.6366479 C75.6692639,72.5190555 70.9005791,77.2878701 65.0181715,77.2878701 C59.1356342,77.2878701 54.3669493,72.5190555 54.3669493,66.6366479 C54.3669493,60.7541106 59.1356342,55.9854257 65.0181715,55.9854257" id="Fill-81"></path>
                <path d="M77.4634449,86.4628582 C83.3655782,86.4628582 88.1504848,91.2476351 88.1504848,97.1498981 C88.1504848,103.052031 83.3655782,107.836678 77.4634449,107.836678 C71.5613117,107.836678 66.7765348,103.052031 66.7765348,97.1498981 C66.7765348,91.2476351 71.5613117,86.4628582 77.4634449,86.4628582" id="Fill-83"></path>
                <path d="M105.121584,83.1602072 C110.147611,83.1602072 114.222003,87.2345997 114.222003,92.260627 C114.222003,97.2866542 110.147611,101.361047 105.121584,101.361047 C100.095556,101.361047 96.0211637,97.2866542 96.0211637,92.260627 C96.0211637,87.2345997 100.095556,83.1602072 105.121584,83.1602072" id="Fill-85"></path>
                <path d="M129.038953,85.6648244 C133.366276,85.6648244 136.874074,89.1726225 136.874074,93.4999452 C136.874074,97.827138 133.366276,101.335066 129.038953,101.335066 C124.71176,101.335066 121.203832,97.827138 121.203832,93.4999452 C121.203832,89.1726225 124.71176,85.6648244 129.038953,85.6648244" id="Fill-87"></path>
                <path d="M148.774399,92.4941947 C152.41898,92.4941947 155.37355,95.4487652 155.37355,99.0932157 C155.37355,102.737796 152.41898,105.692237 148.774399,105.692237 C145.129949,105.692237 142.175378,102.737796 142.175378,99.0932157 C142.175378,95.4487652 145.129949,92.4941947 148.774399,92.4941947" id="Fill-89"></path>
                <path d="M151.304997,71.1008305 C154.483688,71.1008305 157.060616,73.6776281 157.060616,76.8564486 C157.060616,80.0350094 154.483688,82.6118071 151.304997,82.6118071 C148.126437,82.6118071 145.549509,80.0350094 145.549509,76.8564486 C145.549509,73.6776281 148.126437,71.1008305 151.304997,71.1008305" id="Fill-91"></path>
                <path d="M136.124706,61.8479519 C139.806791,61.8479519 142.791858,64.8330193 142.791858,68.5151043 C142.791858,72.1973191 139.806791,75.1822568 136.124706,75.1822568 C132.442491,75.1822568 129.457553,72.1973191 129.457553,68.5151043 C129.457553,64.8330193 132.442491,61.8479519 136.124706,61.8479519" id="Fill-93"></path>
                <path d="M116.622827,55.1451893 C120.92679,55.1451893 124.415771,58.6341702 124.415771,62.9381335 C124.415771,67.241967 120.92679,70.7310777 116.622827,70.7310777 C112.318864,70.7310777 108.829883,67.241967 108.829883,62.9381335 C108.829883,58.6341702 112.318864,55.1451893 116.622827,55.1451893" id="Fill-95"></path>
                <path d="M92.7801036,52.6599604 C97.8097645,52.6599604 101.887012,56.737208 101.887012,61.7668689 C101.887012,66.7965298 97.8097645,70.8737774 92.7801036,70.8737774 C87.7504427,70.8737774 83.6731951,66.7965298 83.6731951,61.7668689 C83.6731951,56.737208 87.7504427,52.6599604 92.7801036,52.6599604" id="Fill-97"></path>
                <path d="M60.625235,28.5706139 C66.3303709,28.5706139 70.9553957,33.1955088 70.9553957,38.9006448 C70.9553957,44.6057807 66.3303709,49.2306756 60.625235,49.2306756 C54.9200991,49.2306756 50.2952041,44.6057807 50.2952041,38.9006448 C50.2952041,33.1955088 54.9200991,28.5706139 60.625235,28.5706139" id="Fill-99"></path>
                <path d="M88.2606891,24.8947321 C93.2938539,24.8947321 97.3740863,28.9749645 97.3740863,34.0082591 C97.3740863,39.0414239 93.2938539,43.1215265 88.2606891,43.1215265 C83.2275243,43.1215265 79.1472919,39.0414239 79.1472919,34.0082591 C79.1472919,28.9749645 83.2275243,24.8947321 88.2606891,24.8947321" id="Fill-101"></path>
                <path d="M112.171596,27.4059418 C116.511247,27.4059418 120.029427,30.9238624 120.029427,35.2637731 C120.029427,39.6034243 116.511247,43.1216044 112.171596,43.1216044 C107.831815,43.1216044 104.313765,39.6034243 104.313765,35.2637731 C104.313765,30.9238624 107.831815,27.4059418 112.171596,27.4059418" id="Fill-103"></path>
                <path d="M131.767509,34.2482376 C135.420914,34.2482376 138.382752,37.2099457 138.382752,40.8634804 C138.382752,44.5170151 135.420914,47.4787232 131.767509,47.4787232 C128.114104,47.4787232 125.152266,44.5170151 125.152266,40.8634804 C125.152266,37.2099457 128.114104,34.2482376 131.767509,34.2482376" id="Fill-105"></path>
                <path d="M146.831082,43.3162139 C150.0975,43.3162139 152.745544,45.9641278 152.745544,49.2306756 C152.745544,52.4970937 150.0975,55.1451374 146.831082,55.1451374 C143.564534,55.1451374 140.91662,52.4970937 140.91662,49.2306756 C140.91662,45.9641278 143.564534,43.3162139 146.831082,43.3162139" id="Fill-107"></path>
                <path d="M157.835913,54.1881042 C160.523668,54.1881042 162.702448,56.3668842 162.702448,59.0546388 C162.702448,61.7422637 160.523668,63.9211735 157.835913,63.9211735 C155.148158,63.9211735 152.969378,61.7422637 152.969378,59.0546388 C152.969378,56.3668842 155.148158,54.1881042 157.835913,54.1881042" id="Fill-109"></path>
            </g>
        </g>
    </g>
</svg>