<?xml version="1.0" encoding="UTF-8"?>
<svg width="256px" height="256px" viewBox="0 0 256 256" version="1.1" xmlns="http://www.w3.org/2000/svg" xmlns:xlink="http://www.w3.org/1999/xlink">
    <!-- Generator: Sketch 47.1 (45422) - http://www.bohemiancoding.com/sketch -->
    <title>NEM</title>
    <desc>Created with Sketch.</desc>
    <defs></defs>
    <g id="Classic" stroke="none" stroke-width="1" fill="none" fill-rule="evenodd">
        <g transform="translate(-4617.000000, -410.000000)" id="NEM">
            <g transform="translate(4617.000000, 410.000000)">
                <path d="M128.016797,242.992938 C128.505357,242.748607 129.116031,242.382161 129.604693,242.015716 C144.99448,232.977207 159.162918,222.228789 172.11011,210.014488 C172.965013,209.281699 173.575687,208.30458 174.064247,207.327358 C174.919354,205.739666 175.774257,204.029656 176.507148,202.44176 C182.614299,189.739001 183.957864,176.547682 179.927169,162.867804 C171.987893,136.485167 146.582376,121.339609 121.054641,124.515196 C113.726245,125.370201 107.00842,127.690988 100.65704,131.355238 C88.5649555,138.195177 75.6179679,141.004421 61.6937583,139.660856 C54.8537168,139.05008 48.380223,137.218057 42.1510602,134.530927 C37.2653601,132.332255 32.623991,129.645227 28.4711818,126.347423 C28.2268507,126.103092 27.8605076,125.980978 27.2497311,125.614532 C27.3718455,126.225207 27.4939599,126.591652 27.6161766,126.835983 C33.1125508,140.76009 39.8303757,153.951409 47.7695488,166.532053 C56.4416128,180.089818 66.3351274,192.670462 77.572207,204.15177 C88.8092865,215.633079 101.145498,225.892936 114.459135,234.809434 C120.566184,238.717912 126.306787,242.260047 128.016797,242.992938 M191.897037,188.395436 C192.507711,188.028991 192.874157,187.540533 193.118488,187.174088 C198.004085,181.066937 202.645557,174.715558 206.92048,168.119847 C222.188255,144.42434 232.936775,118.896708 238.921606,91.2926196 C240.998062,81.8876648 242.341525,72.48271 243.196632,62.9556408 C243.807409,56.482147 244.051638,50.0086532 244.051638,43.4129427 C244.051638,42.9244852 244.051638,42.5580398 243.929523,42.0693777 L242.097296,40.9701438 C237.089482,38.1608995 231.959553,35.4737695 226.829522,33.0309707 C219.256794,29.4888355 211.684066,26.3131458 203.744791,23.7481302 C194.095607,20.6946572 184.324207,20.3281094 174.552909,22.7710106 C146.582376,29.4888355 128.627574,56.9707068 134.001731,85.1855712 C136.93309,100.819689 145.360925,113.033888 158.796575,121.583838 C159.65158,122.194512 160.6287,122.683071 161.483705,123.293848 C171.377117,129.27868 179.072061,137.462286 184.568436,147.600132 C190.431358,158.226333 192.996271,169.707743 192.26338,181.799828 C192.385597,183.876181 192.141266,186.074752 191.897037,188.395436 M11.7377279,42.0693777 L11.7377279,43.5351594 C11.7377279,52.4514521 12.3484021,61.4900638 13.447636,70.2842421 C14.4247555,78.345632 15.7683205,86.2848051 17.6005476,94.2240806 C17.9668907,95.5676456 18.3333361,96.9112106 18.9441126,98.2547755 C29.9368611,121.583838 55.3423789,134.042368 80.5035656,128.301662 C99.6798183,123.904522 115.313936,109.12541 120.566081,90.1933857 C122.031761,84.9412401 122.520423,79.5669802 122.764652,74.1927204 C122.886868,70.6506876 123.253211,67.1084501 123.863988,63.5664173 C128.016797,42.0693777 142.30735,24.3588043 162.460824,15.9310714 C163.560058,15.4425116 164.781509,15.0760662 165.880743,14.5875064 C166.002857,14.4653921 166.247188,14.4653921 166.247188,14.221061 C163.071498,13.1218271 144.139577,11.1674856 132.780281,10.9232569 C108.351985,10.4346972 84.4121462,13.6103869 61.0830842,20.6946572 C43.7389563,25.9467004 27.3718455,33.0309707 11.7377279,42.0693777 M128.016797,255.451366 L126.551118,254.718475 C69.3886004,221.25167 26.1503949,166.043494 8.56193587,100.0869 C5.75279392,89.7047236 3.6763381,79.0784205 2.21065878,68.3299007 C0.867093802,57.5814832 0.134202959,46.7108491 0.0120886046,35.840215 C0.0120886046,34.0080902 -0.232242463,34.2523189 1.47776793,33.3974161 C22.9748075,21.1831146 45.693093,12.2668219 69.7551482,6.64823095 C78.6714409,4.57187749 87.5878359,2.98408381 96.6263453,1.88474754 C109.084773,0.419068213 121.543303,-0.191708277 134.123846,0.0526227909 C141.208116,0.174737145 148.170272,0.663296921 155.132223,1.39618776 C190.187027,5.18255162 223.043158,15.6867403 253.822935,32.9087539 C254.311598,33.153085 254.677941,33.3974161 255.1665,33.6416448 C255.65506,33.8859758 255.899391,34.2523189 255.899391,34.862993 L255.899391,36.6952202 C255.777175,43.0465996 255.532844,49.2758647 255.044386,55.6271418 C254.311598,64.6656512 253.090045,73.5821486 251.380137,82.4984413 C247.715785,101.674694 241.975182,120.118056 234.036009,137.828732 C221.455364,166.043494 204.233453,191.20468 182.492082,213.19028 C166.857965,229.068728 149.39162,242.748607 130.093253,254.107801 C129.360362,254.596258 128.749688,254.962704 128.016797,255.451366" id="Fill-1" fill="#000000"></path>
                <path d="M11.7377075,42.0694084 C27.371825,33.030899 43.7389358,25.9467311 60.9609494,20.8168022 C84.4121257,13.8546463 108.22985,10.5568422 132.658248,11.045402 C144.017442,11.2896307 162.949466,13.1217555 166.125053,14.3432061 C166.247168,14.5875371 166.002939,14.7096515 165.758608,14.7096515 C164.659374,15.1982113 163.437923,15.5646567 162.338689,16.0532165 C142.185215,24.4809494 127.894662,42.1915228 123.741853,63.6885623 C123.131077,67.2305951 122.764733,70.7728326 122.642517,74.3148654 C122.520402,79.6891253 122.03174,85.0633852 120.443947,90.3155307 C115.069687,109.247452 99.5576835,124.026667 80.3814308,128.423807 C55.2202441,134.164513 29.8147263,121.705983 18.8218754,98.3769206 C18.2112013,97.0333556 17.7226415,95.6897906 17.4783104,94.3462257 C15.6461857,86.4069502 14.3026207,78.467777 13.3255012,70.4063872 C12.2261649,61.4899922 11.6154908,52.5735971 11.6154908,43.6573044 C11.7377075,43.0465279 11.7377075,42.6801849 11.7377075,42.0694084 Z" id="Fill-4" fill="#EFA930"></path>
                <path d="M192.507711,181.799766 C192.629928,179.601196 190.553472,158.226476 184.812767,147.60007 C179.316392,137.462225 171.621448,129.400835 161.728036,123.293786 C160.872928,122.683112 159.895809,122.194553 159.040906,121.583776 C145.483142,113.033929 137.177421,100.941844 134.24596,85.1856122 C128.993917,56.8486333 146.826707,29.4888764 174.797138,22.7710516 C184.690652,20.4502647 194.339836,20.6945958 203.989122,23.7481711 C211.928295,26.19097 219.501125,29.4888764 227.073853,33.0309092 C232.325998,35.4738105 237.333813,38.1609404 242.341525,40.9701847 C242.952301,41.3366301 243.440963,41.5808589 244.173752,42.0694186 C244.173752,42.5579784 244.295866,42.9244238 244.295866,43.4129836 C244.295866,49.8864774 243.929523,56.4821879 243.440963,62.9557841 C242.720068,72.507914 241.120279,82.0098201 239.165937,91.2926605 C233.181003,118.896646 222.5547,144.424381 207.164709,168.119888 C202.889786,174.715599 198.248416,181.066876 193.362716,187.174026 C192.874157,187.540472 192.629826,188.029032 191.897037,188.395477 C192.141266,186.074792 192.385494,183.998337 192.507711,181.799766 Z" id="Fill-6" fill="#73B3E5"></path>
                <path d="M128.016797,242.992938 C126.184672,242.260047 120.566184,238.840129 114.581147,234.809434 C101.267714,225.892936 88.9312985,215.633079 77.6943213,204.15177 C66.4572417,192.67036 56.4416128,180.089818 47.8917655,166.532053 C39.8303757,153.951409 33.1125508,140.76009 27.7382909,126.835881 C27.6161766,126.469435 27.4939599,126.225207 27.3718455,125.614532 C27.9825196,125.980978 28.2268507,126.103092 28.5932961,126.347423 C32.8682198,129.645227 37.3874745,132.454472 42.2731746,134.530825 C48.5024397,137.217955 54.9759335,139.05008 61.8158727,139.660754 C75.6179679,141.004319 88.5649555,138.195075 100.779155,131.355238 C107.130534,127.813 113.970473,125.492316 121.176858,124.515196 C146.70449,121.339506 172.11011,136.485167 180.049283,162.867804 C184.079978,176.425568 182.858528,189.616887 176.629263,202.44176 C175.774257,204.151668 175.041366,205.739564 174.186464,207.327358 C173.697802,208.304477 173.087127,209.281699 172.232225,210.014488 C159.285135,222.228789 145.116696,232.977207 129.726808,242.015716 C129.116031,242.382161 128.505255,242.748504 128.016797,242.992836 L128.016797,242.992938 Z" id="Fill-8" fill="#53BDB1"></path>
            </g>
        </g>
    </g>
</svg>